<svg xmlns="http://www.w3.org/2000/svg" width="1280" height="900" viewBox="0 0 1280 900"><defs><radialGradient id="sky"><stop stop-color="#4870a9"/><stop offset="1" stop-color="#101f39"/></radialGradient><linearGradient id="door" x2="0" y2="1"><stop stop-color="#4870a9"/><stop offset="1" stop-color="#101f39"/></linearGradient><linearGradient id="planet" x2=".8" y2="1"><stop stop-color="#aaccef"/><stop offset="1" stop-color="#4870a9"/></linearGradient></defs><rect width="1280" height="900" fill="#101f39"/><ellipse cx="670" cy="400" rx="640" ry="580" fill="url(#sky)" opacity=".85"/><circle cx="1177" cy="290" r="2" fill="#aaccef" opacity="0.27"/><circle cx="531" cy="554" r="2" fill="#aaccef" opacity="0.64"/><circle cx="956" cy="184" r="1" fill="#aaccef" opacity="0.20"/><circle cx="293" cy="261" r="1" fill="#aaccef" opacity="0.48"/><circle cx="699" cy="458" r="2" fill="#aaccef" opacity="0.25"/><circle cx="102" cy="548" r="2" fill="#aaccef" opacity="0.60"/><circle cx="550" cy="98" r="1" fill="#aaccef" opacity="0.40"/><circle cx="33" cy="539" r="1" fill="#aaccef" opacity="0.44"/><circle cx="577" cy="425" r="1" fill="#aaccef" opacity="0.73"/><circle cx="705" cy="674" r="1" fill="#aaccef" opacity="0.61"/><circle cx="448" cy="508" r="1" fill="#aaccef" opacity="0.68"/><circle cx="498" cy="236" r="1" fill="#aaccef" opacity="0.44"/><circle cx="837" cy="653" r="1" fill="#aaccef" opacity="0.56"/><circle cx="406" cy="429" r="1" fill="#aaccef" opacity="0.20"/><circle cx="1044" cy="325" r="1" fill="#aaccef" opacity="0.78"/><circle cx="484" cy="568" r="1" fill="#aaccef" opacity="0.27"/><circle cx="1167" cy="657" r="1" fill="#aaccef" opacity="0.22"/><circle cx="227" cy="670" r="2" fill="#aaccef" opacity="0.21"/><circle cx="397" cy="633" r="1" fill="#aaccef" opacity="0.47"/><circle cx="483" cy="342" r="1" fill="#aaccef" opacity="0.79"/><circle cx="415" cy="104" r="1" fill="#aaccef" opacity="0.59"/><circle cx="462" cy="136" r="1" fill="#aaccef" opacity="0.60"/><circle cx="391" cy="519" r="1" fill="#aaccef" opacity="0.28"/><circle cx="141" cy="76" r="1" fill="#aaccef" opacity="0.47"/><circle cx="1057" cy="314" r="1" fill="#aaccef" opacity="0.39"/><circle cx="1074" cy="368" r="2" fill="#aaccef" opacity="0.30"/><circle cx="298" cy="643" r="2" fill="#aaccef" opacity="0.20"/><circle cx="1025" cy="563" r="2" fill="#aaccef" opacity="0.75"/><circle cx="858" cy="642" r="1" fill="#aaccef" opacity="0.68"/><circle cx="260" cy="539" r="1" fill="#aaccef" opacity="0.34"/><circle cx="747" cy="602" r="1" fill="#aaccef" opacity="0.80"/><circle cx="491" cy="437" r="1" fill="#aaccef" opacity="0.42"/><circle cx="356" cy="494" r="1" fill="#aaccef" opacity="0.28"/><circle cx="1021" cy="534" r="2" fill="#aaccef" opacity="0.26"/><circle cx="1059" cy="256" r="1" fill="#aaccef" opacity="0.59"/><circle cx="872" cy="61" r="2" fill="#aaccef" opacity="0.44"/><circle cx="611" cy="42" r="1" fill="#aaccef" opacity="0.63"/><circle cx="536" cy="228" r="1" fill="#aaccef" opacity="0.70"/><circle cx="948" cy="478" r="1" fill="#aaccef" opacity="0.22"/><circle cx="204" cy="362" r="2" fill="#aaccef" opacity="0.34"/><circle cx="338" cy="164" r="1" fill="#aaccef" opacity="0.38"/><circle cx="363" cy="252" r="1" fill="#aaccef" opacity="0.42"/><circle cx="400" cy="178" r="2" fill="#aaccef" opacity="0.24"/><circle cx="1024" cy="158" r="1" fill="#aaccef" opacity="0.29"/><circle cx="356" cy="193" r="1" fill="#aaccef" opacity="0.58"/><circle cx="299" cy="562" r="1" fill="#aaccef" opacity="0.71"/><circle cx="743" cy="179" r="1" fill="#aaccef" opacity="0.63"/><circle cx="951" cy="446" r="2" fill="#aaccef" opacity="0.77"/><circle cx="964" cy="290" r="1" fill="#aaccef" opacity="0.75"/><circle cx="816" cy="171" r="1" fill="#aaccef" opacity="0.44"/><circle cx="37" cy="399" r="1" fill="#aaccef" opacity="0.76"/><circle cx="187" cy="192" r="2" fill="#aaccef" opacity="0.58"/><circle cx="331" cy="522" r="2" fill="#aaccef" opacity="0.29"/><circle cx="269" cy="108" r="2" fill="#aaccef" opacity="0.47"/><circle cx="928" cy="118" r="1" fill="#aaccef" opacity="0.55"/><circle cx="700" cy="492" r="2" fill="#aaccef" opacity="0.45"/><circle cx="393" cy="320" r="1" fill="#aaccef" opacity="0.70"/><circle cx="468" cy="528" r="2" fill="#aaccef" opacity="0.79"/><circle cx="486" cy="457" r="2" fill="#aaccef" opacity="0.69"/><circle cx="736" cy="540" r="1" fill="#aaccef" opacity="0.71"/><circle cx="407" cy="29" r="1" fill="#aaccef" opacity="0.34"/><circle cx="940" cy="36" r="1" fill="#aaccef" opacity="0.78"/><circle cx="879" cy="621" r="1" fill="#aaccef" opacity="0.56"/><circle cx="351" cy="296" r="2" fill="#aaccef" opacity="0.40"/><circle cx="1003" cy="587" r="1" fill="#aaccef" opacity="0.37"/><circle cx="727" cy="442" r="2" fill="#aaccef" opacity="0.38"/><circle cx="1177" cy="222" r="1" fill="#aaccef" opacity="0.40"/><circle cx="1010" cy="365" r="2" fill="#aaccef" opacity="0.55"/><circle cx="1159" cy="177" r="2" fill="#aaccef" opacity="0.38"/><circle cx="943" cy="520" r="1" fill="#aaccef" opacity="0.27"/><circle cx="961" cy="653" r="1" fill="#aaccef" opacity="0.73"/><circle cx="76" cy="607" r="1" fill="#aaccef" opacity="0.57"/><circle cx="483" cy="471" r="2" fill="#aaccef" opacity="0.28"/><circle cx="992" cy="187" r="1" fill="#aaccef" opacity="0.62"/><circle cx="1000" cy="632" r="1" fill="#aaccef" opacity="0.23"/><circle cx="876" cy="460" r="1" fill="#aaccef" opacity="0.34"/><circle cx="516" cy="505" r="1" fill="#aaccef" opacity="0.25"/><circle cx="667" cy="140" r="1" fill="#aaccef" opacity="0.51"/><circle cx="1197" cy="536" r="1" fill="#aaccef" opacity="0.32"/><circle cx="943" cy="453" r="1" fill="#aaccef" opacity="0.69"/><circle cx="756" cy="163" r="1" fill="#aaccef" opacity="0.63"/><circle cx="1096" cy="71" r="1" fill="#aaccef" opacity="0.29"/><circle cx="396" cy="317" r="2" fill="#aaccef" opacity="0.20"/><circle cx="131" cy="660" r="2" fill="#aaccef" opacity="0.50"/><circle cx="700" cy="480" r="1" fill="#aaccef" opacity="0.25"/><circle cx="1221" cy="389" r="2" fill="#aaccef" opacity="0.61"/><circle cx="160" cy="292" r="1" fill="#aaccef" opacity="0.28"/><circle cx="742" cy="21" r="2" fill="#aaccef" opacity="0.61"/><circle cx="706" cy="453" r="1" fill="#aaccef" opacity="0.61"/><circle cx="859" cy="378" r="2" fill="#aaccef" opacity="0.71"/><circle cx="1060" cy="180" r="58" fill="#aaccef" opacity=".25"/><path d="M30 748q620-125 1220 0" fill="none" stroke="#aaccef" opacity=".17"/><rect x="-30" y="616" width="44" height="84" fill="#4870a9" opacity="0.38"/><rect x="-21" y="629" width="5" height="7" fill="#aaccef" opacity=".55"/><rect x="-21" y="673" width="5" height="7" fill="#aaccef" opacity=".55"/><rect x="-21" y="695" width="5" height="7" fill="#aaccef" opacity=".55"/><rect x="25" y="624" width="37" height="76" fill="#4870a9" opacity="0.38"/><rect x="34" y="637" width="5" height="7" fill="#aaccef" opacity=".55"/><rect x="34" y="659" width="5" height="7" fill="#aaccef" opacity=".55"/><rect x="34" y="681" width="5" height="7" fill="#aaccef" opacity=".55"/><rect x="80" y="611" width="38" height="89" fill="#4870a9" opacity="0.38"/><rect x="89" y="624" width="5" height="7" fill="#aaccef" opacity=".55"/><rect x="89" y="646" width="5" height="7" fill="#aaccef" opacity=".55"/><rect x="89" y="690" width="5" height="7" fill="#aaccef" opacity=".55"/><rect x="135" y="566" width="33" height="134" fill="#4870a9" opacity="0.38"/><rect x="144" y="579" width="5" height="7" fill="#aaccef" opacity=".55"/><rect x="144" y="645" width="5" height="7" fill="#aaccef" opacity=".55"/><rect x="144" y="667" width="5" height="7" fill="#aaccef" opacity=".55"/><rect x="144" y="689" width="5" height="7" fill="#aaccef" opacity=".55"/><rect x="190" y="556" width="36" height="144" fill="#4870a9" opacity="0.38"/><rect x="199" y="569" width="5" height="7" fill="#aaccef" opacity=".55"/><rect x="199" y="613" width="5" height="7" fill="#aaccef" opacity=".55"/><rect x="199" y="635" width="5" height="7" fill="#aaccef" opacity=".55"/><rect x="199" y="657" width="5" height="7" fill="#aaccef" opacity=".55"/><rect x="199" y="679" width="5" height="7" fill="#aaccef" opacity=".55"/><rect x="245" y="642" width="32" height="58" fill="#4870a9" opacity="0.38"/><rect x="254" y="655" width="5" height="7" fill="#aaccef" opacity=".55"/><rect x="254" y="699" width="5" height="7" fill="#aaccef" opacity=".55"/><rect x="300" y="640" width="33" height="60" fill="#4870a9" opacity="0.38"/><rect x="309" y="675" width="5" height="7" fill="#aaccef" opacity=".55"/><rect x="309" y="697" width="5" height="7" fill="#aaccef" opacity=".55"/><rect x="355" y="592" width="52" height="108" fill="#4870a9" opacity="0.38"/><rect x="364" y="605" width="5" height="7" fill="#aaccef" opacity=".55"/><rect x="364" y="627" width="5" height="7" fill="#aaccef" opacity=".55"/><rect x="364" y="649" width="5" height="7" fill="#aaccef" opacity=".55"/><rect x="364" y="693" width="5" height="7" fill="#aaccef" opacity=".55"/><rect x="410" y="635" width="51" height="65" fill="#4870a9" opacity="0.38"/><rect x="419" y="648" width="5" height="7" fill="#aaccef" opacity=".55"/><rect x="419" y="692" width="5" height="7" fill="#aaccef" opacity=".55"/><rect x="465" y="572" width="41" height="128" fill="#4870a9" opacity="0.38"/><rect x="474" y="585" width="5" height="7" fill="#aaccef" opacity=".55"/><rect x="474" y="607" width="5" height="7" fill="#aaccef" opacity=".55"/><rect x="474" y="629" width="5" height="7" fill="#aaccef" opacity=".55"/><rect x="474" y="651" width="5" height="7" fill="#aaccef" opacity=".55"/><rect x="474" y="695" width="5" height="7" fill="#aaccef" opacity=".55"/><rect x="520" y="564" width="44" height="136" fill="#4870a9" opacity="0.38"/><rect x="529" y="621" width="5" height="7" fill="#aaccef" opacity=".55"/><rect x="529" y="665" width="5" height="7" fill="#aaccef" opacity=".55"/><rect x="529" y="687" width="5" height="7" fill="#aaccef" opacity=".55"/><rect x="575" y="653" width="33" height="47" fill="#4870a9" opacity="0.38"/><rect x="584" y="688" width="5" height="7" fill="#aaccef" opacity=".55"/><rect x="630" y="650" width="37" height="50" fill="#4870a9" opacity="0.38"/><rect x="639" y="685" width="5" height="7" fill="#aaccef" opacity=".55"/><rect x="685" y="636" width="52" height="64" fill="#4870a9" opacity="0.38"/><rect x="694" y="671" width="5" height="7" fill="#aaccef" opacity=".55"/><rect x="694" y="693" width="5" height="7" fill="#aaccef" opacity=".55"/><rect x="740" y="596" width="47" height="104" fill="#4870a9" opacity="0.38"/><rect x="749" y="631" width="5" height="7" fill="#aaccef" opacity=".55"/><rect x="749" y="653" width="5" height="7" fill="#aaccef" opacity=".55"/><rect x="749" y="675" width="5" height="7" fill="#aaccef" opacity=".55"/><rect x="749" y="697" width="5" height="7" fill="#aaccef" opacity=".55"/><rect x="795" y="638" width="31" height="62" fill="#4870a9" opacity="0.38"/><rect x="804" y="651" width="5" height="7" fill="#aaccef" opacity=".55"/><rect x="804" y="673" width="5" height="7" fill="#aaccef" opacity=".55"/><rect x="804" y="695" width="5" height="7" fill="#aaccef" opacity=".55"/><rect x="850" y="615" width="50" height="85" fill="#4870a9" opacity="0.38"/><rect x="859" y="628" width="5" height="7" fill="#aaccef" opacity=".55"/><rect x="859" y="650" width="5" height="7" fill="#aaccef" opacity=".55"/><rect x="859" y="672" width="5" height="7" fill="#aaccef" opacity=".55"/><rect x="859" y="694" width="5" height="7" fill="#aaccef" opacity=".55"/><rect x="905" y="656" width="42" height="44" fill="#4870a9" opacity="0.38"/><rect x="914" y="669" width="5" height="7" fill="#aaccef" opacity=".55"/><rect x="960" y="585" width="30" height="115" fill="#4870a9" opacity="0.38"/><rect x="969" y="620" width="5" height="7" fill="#aaccef" opacity=".55"/><rect x="969" y="642" width="5" height="7" fill="#aaccef" opacity=".55"/><rect x="969" y="664" width="5" height="7" fill="#aaccef" opacity=".55"/><rect x="1015" y="612" width="45" height="88" fill="#4870a9" opacity="0.38"/><rect x="1024" y="647" width="5" height="7" fill="#aaccef" opacity=".55"/><rect x="1024" y="691" width="5" height="7" fill="#aaccef" opacity=".55"/><rect x="1070" y="595" width="51" height="105" fill="#4870a9" opacity="0.38"/><rect x="1079" y="608" width="5" height="7" fill="#aaccef" opacity=".55"/><rect x="1079" y="630" width="5" height="7" fill="#aaccef" opacity=".55"/><rect x="1079" y="674" width="5" height="7" fill="#aaccef" opacity=".55"/><rect x="1079" y="696" width="5" height="7" fill="#aaccef" opacity=".55"/><rect x="1125" y="621" width="54" height="79" fill="#4870a9" opacity="0.38"/><rect x="1134" y="656" width="5" height="7" fill="#aaccef" opacity=".55"/><rect x="1180" y="563" width="35" height="137" fill="#4870a9" opacity="0.38"/><rect x="1189" y="598" width="5" height="7" fill="#aaccef" opacity=".55"/><rect x="1189" y="620" width="5" height="7" fill="#aaccef" opacity=".55"/><rect x="1189" y="642" width="5" height="7" fill="#aaccef" opacity=".55"/><rect x="1189" y="664" width="5" height="7" fill="#aaccef" opacity=".55"/><rect x="1189" y="686" width="5" height="7" fill="#aaccef" opacity=".55"/><rect x="1235" y="590" width="45" height="110" fill="#4870a9" opacity="0.38"/><rect x="1244" y="603" width="5" height="7" fill="#aaccef" opacity=".55"/><rect x="1244" y="647" width="5" height="7" fill="#aaccef" opacity=".55"/><rect x="1244" y="691" width="5" height="7" fill="#aaccef" opacity=".55"/><rect x="1290" y="653" width="32" height="47" fill="#4870a9" opacity="0.38"/><rect x="1299" y="666" width="5" height="7" fill="#aaccef" opacity=".55"/><rect x="1299" y="688" width="5" height="7" fill="#aaccef" opacity=".55"/><rect x="-30" y="721" width="33" height="89" fill="#4870a9" opacity="0.68"/><rect x="-21" y="734" width="5" height="7" fill="#aaccef" opacity=".55"/><rect x="-21" y="756" width="5" height="7" fill="#aaccef" opacity=".55"/><rect x="-21" y="778" width="5" height="7" fill="#aaccef" opacity=".55"/><rect x="-21" y="800" width="5" height="7" fill="#aaccef" opacity=".55"/><rect x="25" y="663" width="53" height="147" fill="#4870a9" opacity="0.68"/><rect x="34" y="698" width="5" height="7" fill="#aaccef" opacity=".55"/><rect x="34" y="720" width="5" height="7" fill="#aaccef" opacity=".55"/><rect x="34" y="742" width="5" height="7" fill="#aaccef" opacity=".55"/><rect x="34" y="764" width="5" height="7" fill="#aaccef" opacity=".55"/><rect x="34" y="808" width="5" height="7" fill="#aaccef" opacity=".55"/><rect x="80" y="746" width="48" height="64" fill="#4870a9" opacity="0.68"/><rect x="89" y="759" width="5" height="7" fill="#aaccef" opacity=".55"/><rect x="89" y="803" width="5" height="7" fill="#aaccef" opacity=".55"/><rect x="135" y="670" width="40" height="140" fill="#4870a9" opacity="0.68"/><rect x="144" y="683" width="5" height="7" fill="#aaccef" opacity=".55"/><rect x="144" y="705" width="5" height="7" fill="#aaccef" opacity=".55"/><rect x="144" y="727" width="5" height="7" fill="#aaccef" opacity=".55"/><rect x="144" y="771" width="5" height="7" fill="#aaccef" opacity=".55"/><rect x="190" y="735" width="53" height="75" fill="#4870a9" opacity="0.68"/><rect x="199" y="792" width="5" height="7" fill="#aaccef" opacity=".55"/><rect x="245" y="707" width="33" height="103" fill="#4870a9" opacity="0.68"/><rect x="254" y="720" width="5" height="7" fill="#aaccef" opacity=".55"/><rect x="254" y="742" width="5" height="7" fill="#aaccef" opacity=".55"/><rect x="254" y="764" width="5" height="7" fill="#aaccef" opacity=".55"/><rect x="254" y="786" width="5" height="7" fill="#aaccef" opacity=".55"/><rect x="254" y="808" width="5" height="7" fill="#aaccef" opacity=".55"/><rect x="300" y="720" width="54" height="90" fill="#4870a9" opacity="0.68"/><rect x="309" y="733" width="5" height="7" fill="#aaccef" opacity=".55"/><rect x="309" y="755" width="5" height="7" fill="#aaccef" opacity=".55"/><rect x="309" y="777" width="5" height="7" fill="#aaccef" opacity=".55"/><rect x="309" y="799" width="5" height="7" fill="#aaccef" opacity=".55"/><rect x="355" y="741" width="53" height="69" fill="#4870a9" opacity="0.68"/><rect x="364" y="754" width="5" height="7" fill="#aaccef" opacity=".55"/><rect x="364" y="776" width="5" height="7" fill="#aaccef" opacity=".55"/><rect x="410" y="727" width="53" height="83" fill="#4870a9" opacity="0.68"/><rect x="419" y="740" width="5" height="7" fill="#aaccef" opacity=".55"/><rect x="419" y="762" width="5" height="7" fill="#aaccef" opacity=".55"/><rect x="419" y="784" width="5" height="7" fill="#aaccef" opacity=".55"/><rect x="419" y="806" width="5" height="7" fill="#aaccef" opacity=".55"/><rect x="465" y="708" width="45" height="102" fill="#4870a9" opacity="0.68"/><rect x="474" y="721" width="5" height="7" fill="#aaccef" opacity=".55"/><rect x="474" y="743" width="5" height="7" fill="#aaccef" opacity=".55"/><rect x="474" y="765" width="5" height="7" fill="#aaccef" opacity=".55"/><rect x="520" y="684" width="41" height="126" fill="#4870a9" opacity="0.68"/><rect x="529" y="697" width="5" height="7" fill="#aaccef" opacity=".55"/><rect x="529" y="719" width="5" height="7" fill="#aaccef" opacity=".55"/><rect x="529" y="741" width="5" height="7" fill="#aaccef" opacity=".55"/><rect x="529" y="763" width="5" height="7" fill="#aaccef" opacity=".55"/><rect x="529" y="785" width="5" height="7" fill="#aaccef" opacity=".55"/><rect x="529" y="807" width="5" height="7" fill="#aaccef" opacity=".55"/><rect x="575" y="711" width="47" height="99" fill="#4870a9" opacity="0.68"/><rect x="584" y="746" width="5" height="7" fill="#aaccef" opacity=".55"/><rect x="584" y="790" width="5" height="7" fill="#aaccef" opacity=".55"/><rect x="630" y="685" width="51" height="125" fill="#4870a9" opacity="0.68"/><rect x="639" y="698" width="5" height="7" fill="#aaccef" opacity=".55"/><rect x="639" y="720" width="5" height="7" fill="#aaccef" opacity=".55"/><rect x="639" y="742" width="5" height="7" fill="#aaccef" opacity=".55"/><rect x="639" y="764" width="5" height="7" fill="#aaccef" opacity=".55"/><rect x="639" y="786" width="5" height="7" fill="#aaccef" opacity=".55"/><rect x="685" y="745" width="38" height="65" fill="#4870a9" opacity="0.68"/><rect x="694" y="758" width="5" height="7" fill="#aaccef" opacity=".55"/><rect x="694" y="780" width="5" height="7" fill="#aaccef" opacity=".55"/><rect x="694" y="802" width="5" height="7" fill="#aaccef" opacity=".55"/><rect x="740" y="675" width="54" height="135" fill="#4870a9" opacity="0.68"/><rect x="749" y="688" width="5" height="7" fill="#aaccef" opacity=".55"/><rect x="749" y="710" width="5" height="7" fill="#aaccef" opacity=".55"/><rect x="749" y="776" width="5" height="7" fill="#aaccef" opacity=".55"/><rect x="749" y="798" width="5" height="7" fill="#aaccef" opacity=".55"/><rect x="795" y="730" width="38" height="80" fill="#4870a9" opacity="0.68"/><rect x="804" y="787" width="5" height="7" fill="#aaccef" opacity=".55"/><rect x="804" y="809" width="5" height="7" fill="#aaccef" opacity=".55"/><rect x="850" y="715" width="40" height="95" fill="#4870a9" opacity="0.68"/><rect x="859" y="750" width="5" height="7" fill="#aaccef" opacity=".55"/><rect x="859" y="772" width="5" height="7" fill="#aaccef" opacity=".55"/><rect x="859" y="794" width="5" height="7" fill="#aaccef" opacity=".55"/><rect x="905" y="692" width="46" height="118" fill="#4870a9" opacity="0.68"/><rect x="914" y="705" width="5" height="7" fill="#aaccef" opacity=".55"/><rect x="914" y="793" width="5" height="7" fill="#aaccef" opacity=".55"/><rect x="960" y="726" width="52" height="84" fill="#4870a9" opacity="0.68"/><rect x="969" y="739" width="5" height="7" fill="#aaccef" opacity=".55"/><rect x="969" y="761" width="5" height="7" fill="#aaccef" opacity=".55"/><rect x="969" y="805" width="5" height="7" fill="#aaccef" opacity=".55"/><rect x="1015" y="757" width="42" height="53" fill="#4870a9" opacity="0.68"/><rect x="1024" y="770" width="5" height="7" fill="#aaccef" opacity=".55"/><rect x="1024" y="792" width="5" height="7" fill="#aaccef" opacity=".55"/><rect x="1070" y="668" width="46" height="142" fill="#4870a9" opacity="0.68"/><rect x="1079" y="681" width="5" height="7" fill="#aaccef" opacity=".55"/><rect x="1079" y="725" width="5" height="7" fill="#aaccef" opacity=".55"/><rect x="1079" y="747" width="5" height="7" fill="#aaccef" opacity=".55"/><rect x="1079" y="791" width="5" height="7" fill="#aaccef" opacity=".55"/><rect x="1125" y="670" width="43" height="140" fill="#4870a9" opacity="0.68"/><rect x="1134" y="683" width="5" height="7" fill="#aaccef" opacity=".55"/><rect x="1134" y="705" width="5" height="7" fill="#aaccef" opacity=".55"/><rect x="1134" y="727" width="5" height="7" fill="#aaccef" opacity=".55"/><rect x="1134" y="749" width="5" height="7" fill="#aaccef" opacity=".55"/><rect x="1134" y="771" width="5" height="7" fill="#aaccef" opacity=".55"/><rect x="1134" y="793" width="5" height="7" fill="#aaccef" opacity=".55"/><rect x="1180" y="722" width="36" height="88" fill="#4870a9" opacity="0.68"/><rect x="1189" y="735" width="5" height="7" fill="#aaccef" opacity=".55"/><rect x="1189" y="757" width="5" height="7" fill="#aaccef" opacity=".55"/><rect x="1189" y="801" width="5" height="7" fill="#aaccef" opacity=".55"/><rect x="1235" y="752" width="51" height="58" fill="#4870a9" opacity="0.68"/><rect x="1244" y="765" width="5" height="7" fill="#aaccef" opacity=".55"/><rect x="1244" y="809" width="5" height="7" fill="#aaccef" opacity=".55"/><rect x="1290" y="715" width="46" height="95" fill="#4870a9" opacity="0.68"/><rect x="1299" y="728" width="5" height="7" fill="#aaccef" opacity=".55"/><rect x="1299" y="750" width="5" height="7" fill="#aaccef" opacity=".55"/><rect x="1299" y="772" width="5" height="7" fill="#aaccef" opacity=".55"/><rect x="1299" y="794" width="5" height="7" fill="#aaccef" opacity=".55"/><path d="M445 665V370a175 175 0 0 1 350 0v295" fill="url(#door)" stroke="#aaccef" stroke-width="3"/><path d="M415 665V370a205 205 0 0 1 410 0v295" fill="none" stroke="#4870a9" stroke-width="14"/><path d="M385 665V370a235 235 0 0 1 470 0v295" fill="none" stroke="#aaccef" stroke-width="1" opacity=".5"/><circle cx="620" cy="410" r="93" fill="#aaccef" opacity=".9"/><path d="M490 562l105-85 65 66 92-108 43 140v90H445z" fill="#101f39"/><path d="M410 650h420l25 15H385z" fill="#aaccef" opacity="0.30" stroke="#4870a9"/><path d="M383 673h474l25 15H358z" fill="#aaccef" opacity="0.29" stroke="#4870a9"/><path d="M356 696h528l25 15H331z" fill="#aaccef" opacity="0.28" stroke="#4870a9"/><path d="M329 719h582l25 15H304z" fill="#aaccef" opacity="0.26" stroke="#4870a9"/><path d="M302 742h636l25 15H277z" fill="#aaccef" opacity="0.25" stroke="#4870a9"/><path d="M275 765h690l25 15H250z" fill="#aaccef" opacity="0.24" stroke="#4870a9"/><path d="M248 788h744l25 15H223z" fill="#aaccef" opacity="0.23" stroke="#4870a9"/><path d="M221 811h798l25 15H196z" fill="#aaccef" opacity="0.22" stroke="#4870a9"/><path d="M194 834h852l25 15H169z" fill="#aaccef" opacity="0.20" stroke="#4870a9"/><rect x="595" y="652" width="14" height="55" rx="7" fill="#111726"/><circle cx="602" cy="644" r="9" fill="#111726"/><path d="M602 708l-5 23m10-23 5 23" stroke="#111726" stroke-width="5"/></svg>